PathFileType	4	(X/Y/Z)	\\147.46.242.158\로컬 디스크 (e)\MOCAP Data\Iguana Capture\iguana\Project 2\Capture day 7\Session 2\Take14.trc
DataRate	CameraRate	NumFrames	NumMarkers	Units	OrigDataRate	OrigDataStartFrame	OrigNumFrames
120.0	120.0	17	23	mm	120.0	70	5026
Frame#	Time	ana:head1			ana:head2			ana:bone1			ana:bone2			ana:bone3			ana:tail1			ana:tail2			ana:tail3			ana:tail4			ana:Rforefoot1			ana:Rforefoot2			ana:Rforefoot3			ana:Lforefoot1			ana:Lforefoot2			ana:Lforefoot3			ana:RhindLeg1			ana:RhindLeg2			ana:RhindLeg3			ana:RhindLeg4			ana:LhindLeg1			ana:LhindLeg2			ana:LhindLeg3			ana:LhindLeg4			
		X1	Y1	Z1	X2	Y2	Z2	X3	Y3	Z3	X4	Y4	Z4	X5	Y5	Z5	X6	Y6	Z6	X7	Y7	Z7	X8	Y8	Z8	X9	Y9	Z9	X10	Y10	Z10	X11	Y11	Z11	X12	Y12	Z12	X13	Y13	Z13	X14	Y14	Z14	X15	Y15	Z15	X16	Y16	Z16	X17	Y17	Z17	X18	Y18	Z18	X19	Y19	Z19	X20	Y20	Z20	X21	Y21	Z21	X22	Y22	Z22	X23	Y23	Z23	

2820	23.492	399.56052	177.20157	46.43053	388.96011	177.22707	48.00096	366.80762	174.50882	43.30106	337.62164	176.42560	42.01321	304.79037	185.59351	34.30978	278.97467	201.73253	23.75605	249.77029	220.23154	10.97620	215.53416	242.63362	6.70791	178.03427	261.97488	5.12404	370.53055	162.13725	24.75422	364.95956	150.32664	15.23647	373.54306	157.05817	1.96808	366.19287	184.43568	27.81531	356.12845	192.19905	25.81676	350.27521	188.41574	6.61726	299.19116	177.76871	28.38004	282.04144	169.56424	23.31276	259.28397	174.67682	15.22150	256.00174	167.87135	7.40272	309.67776	193.76701	26.58367	320.19241	205.47438	17.50567	307.57126	204.42604	1.87789	318.46585	206.78096	2.48221	
2821	23.500	401.15253	177.23607	46.31753	390.55099	177.11705	47.87857	368.47769	174.77737	43.24709	339.21872	176.90741	42.02626	306.19888	185.66377	34.48729	280.04260	201.22090	23.99183	250.70297	219.46304	11.10100	216.54578	241.97800	6.70012	179.13017	261.43390	5.12291	371.63556	162.26585	24.73512	365.05475	150.76698	15.37277	373.43723	157.16164	1.99527	368.62753	184.68187	28.37564	359.36191	193.41658	27.46314	353.77448	192.88246	8.20056	300.61157	177.71516	28.56612	283.78976	169.22568	23.49180	260.85190	173.84666	15.59951	257.26718	167.18411	7.73681	310.79703	193.96144	26.61852	320.54779	206.07793	17.14712	307.53497	204.48929	1.89026	318.47006	206.81461	2.47775	
2822	23.508	402.78088	177.27353	46.22108	392.17203	176.98080	47.72311	370.13605	175.06636	43.16755	340.86789	177.44560	42.02765	307.64511	185.75766	34.67758	281.15012	200.66953	24.23566	251.64583	218.61922	11.23334	217.55843	241.26904	6.68909	180.24019	260.85452	5.15106	372.75220	162.36391	24.73896	365.27994	151.08287	15.62131	373.29523	157.25954	2.01492	371.05234	184.90259	28.93316	362.65024	194.48474	28.84914	358.01993	196.88022	9.87104	302.11273	177.68362	28.74746	285.58344	168.76234	23.70576	262.51004	172.96448	15.96155	258.68057	166.43442	8.07126	311.97015	194.11890	26.66801	320.81442	206.70212	16.78749	307.48450	204.55060	1.89749	318.45898	206.82510	2.44915	
2823	23.517	404.40436	177.27509	46.12263	393.77603	176.83781	47.58776	371.75119	175.34271	43.08639	342.51761	178.01208	42.00895	309.11911	185.86311	34.81231	282.24200	200.07794	24.46347	252.57454	217.71419	11.35928	218.55357	240.46858	6.68496	181.35300	260.21213	5.16013	373.86371	162.47206	24.74345	365.61987	151.31870	15.90514	373.21234	157.30446	2.03985	373.39514	185.16896	29.41896	365.89420	195.31084	29.86631	362.97183	200.11981	11.40349	303.70535	177.66182	28.89929	287.43344	168.15895	24.00693	264.28427	172.09502	16.30615	260.25562	165.57932	8.44145	313.08325	194.26917	26.64941	320.95816	207.37062	16.43963	307.43268	204.63541	1.90996	318.45294	206.84686	2.42981	
2824	23.525	406.01514	177.27408	46.05658	395.36975	176.74124	47.48766	373.31705	175.59592	43.04764	344.17776	178.59561	41.97277	310.59784	185.93776	34.93099	283.33865	199.40440	24.66232	253.50064	216.72597	11.46928	219.53723	239.57732	6.66716	182.46677	259.52002	5.16847	374.96747	162.56297	24.75708	366.06619	151.51611	16.19891	373.15826	157.32072	2.04501	375.56219	185.40933	29.73925	368.90588	196.00464	30.52633	368.41422	202.36157	12.66670	305.35397	177.63783	29.01483	289.37317	167.38058	24.41388	266.22189	171.30524	16.57450	262.06522	164.64481	8.79891	314.18076	194.45351	26.63760	321.01953	208.06555	16.11614	307.43405	204.78188	2.02852	318.46582	206.89453	2.42958	
2825	23.533	407.56168	177.24155	45.98260	396.92261	176.72424	47.43815	374.81216	175.80200	42.99731	345.80365	179.14940	41.94678	312.09555	185.99889	34.98508	284.42017	198.69646	24.83267	254.43027	215.76784	11.57175	220.54616	238.58592	6.63242	183.53099	258.81647	5.18870	376.04968	162.62546	24.81317	366.58481	151.72604	16.46537	373.12744	157.36606	1.99777	377.58536	185.63385	29.90183	371.70230	196.61249	30.88132	374.03830	203.60199	13.64440	307.07120	177.58466	29.15951	291.47784	166.39282	24.89811	268.46426	170.37822	16.74727	264.13928	163.75827	9.11718	315.17001	194.69344	26.60666	321.02365	208.80200	15.84529	307.45239	204.89435	2.13068	318.49265	206.96295	2.45440	
2826	23.542	409.02206	177.16154	45.90829	398.43579	176.78668	47.42179	376.24805	175.95895	42.96004	347.38562	179.65126	41.90950	313.56207	186.00136	35.02720	285.50327	197.86009	24.95102	255.35167	214.76654	11.63660	221.53143	237.59123	6.60581	184.60199	258.07544	5.17342	377.10016	162.67380	24.86632	367.17310	151.94144	16.71922	373.16028	157.37041	1.97905	379.47519	185.70859	29.90612	374.37338	197.03021	30.88792	379.73193	204.13748	14.54891	308.78683	177.49403	29.27556	293.81738	165.22826	25.43586	271.07037	169.46494	16.83197	266.64587	162.85007	9.37493	316.06128	194.96864	26.54889	321.06390	209.38591	15.59119	307.47705	204.95833	2.20488	318.53629	207.05569	2.49840	
2827	23.550	410.43347	177.08517	45.87590	399.88345	176.87497	47.42399	377.62613	176.04210	42.91958	348.88425	180.04700	41.86710	315.02151	185.95427	35.01577	286.55389	196.94261	25.04019	256.27725	213.73645	11.69479	222.51419	236.53595	6.57411	185.67563	257.33453	5.16269	378.11972	162.70119	24.91972	367.71158	152.20615	16.92498	373.23996	157.39751	2.00889	381.27707	185.65497	29.83100	377.00900	197.34767	30.71367	385.23178	204.10936	15.36949	310.56018	177.29311	29.34852	296.46750	163.87248	26.01548	274.14740	168.54874	16.80376	269.64377	161.88376	9.65623	316.93182	195.19852	26.51837	321.16165	209.79982	15.38501	307.52426	205.01317	2.28040	318.60266	207.16682	2.57527	
2828	23.558	411.78162	176.97270	45.87177	401.27753	176.97665	47.43658	378.94272	176.04520	42.86342	350.35254	180.43105	41.81194	316.42322	185.82912	35.02811	287.57031	195.96025	25.06952	257.22293	212.73466	11.73682	223.52454	235.52953	6.54588	186.78310	256.57886	5.13693	379.09167	162.67775	24.97227	368.30374	152.39365	17.21264	373.35019	157.41722	2.05931	383.01089	185.55070	29.77709	379.70374	197.60313	30.35500	390.41901	203.65591	16.18514	312.31769	177.00392	29.33165	299.48016	162.35577	26.58617	277.64719	167.70320	16.75308	273.16873	160.79906	10.00935	317.76257	195.32030	26.46372	321.34283	209.94121	15.20193	307.55920	205.04137	2.36588	318.65561	207.32608	2.67937	
2829	23.567	413.07803	176.83575	45.89788	402.58771	176.94339	47.46144	380.22049	175.98064	42.81690	351.72549	180.65518	41.73957	317.82660	185.65218	34.97771	288.58762	194.88245	25.03648	258.17786	211.66937	11.72954	224.55222	234.54152	6.50190	187.93736	255.79588	5.10328	380.02182	162.63002	24.97857	368.88144	152.54662	17.49346	373.43823	157.46605	2.10733	384.70728	185.41887	29.76173	382.45898	197.73738	29.88298	395.15527	202.93669	16.97436	314.12686	176.59293	29.25419	302.87683	160.75725	27.11973	281.56140	166.93953	16.68092	277.30185	159.54031	10.44499	318.56915	195.31306	26.36975	321.50568	209.93161	15.06135	307.55597	205.01097	2.45162	318.68698	207.43335	2.74799	
2830	23.575	414.35052	176.67766	45.96384	403.85580	176.82083	47.47982	381.45770	175.84880	42.74702	353.05743	180.78712	41.66984	319.25067	185.42426	34.88502	289.63589	193.78040	24.94722	259.16202	210.55159	11.69113	225.63127	233.51952	6.44988	189.14574	254.99600	5.09866	380.93033	162.53305	24.95917	369.53485	152.55116	17.84979	373.53888	157.50635	2.17274	386.35886	185.30598	29.70428	385.21213	197.72458	29.33685	399.36053	202.00926	17.63810	315.85544	176.16409	29.10851	306.57401	159.19695	27.59956	285.88907	166.04544	16.57895	282.06335	158.03113	10.93515	319.42087	195.16837	26.29417	321.61966	209.81531	14.96453	307.52676	204.94022	2.57084	318.71741	207.51416	2.82339	
2831	23.583	415.61102	176.49124	46.01416	405.07388	176.61465	47.53256	382.67154	175.66266	42.67220	354.32596	180.76389	41.56958	320.71735	185.14925	34.75222	290.67383	192.66165	24.81815	260.15875	209.37352	11.61821	226.73630	232.48837	6.40758	190.41576	254.17281	5.08491	381.83081	162.38560	24.92305	370.19052	152.51051	18.16275	373.62900	157.53458	2.24739	387.99399	185.19183	29.58314	387.96014	197.60384	28.69899	403.07489	200.96938	18.14996	317.54514	175.77348	28.94378	310.53809	157.79108	28.05541	290.49597	164.91211	16.46090	287.46188	156.30182	11.44565	320.30273	194.89348	26.22538	321.68228	209.58812	14.89323	307.41360	204.89619	2.74383	318.74463	207.48450	2.85774	
2832	23.592	416.86215	176.26979	46.07424	406.29578	176.33821	47.60555	383.92166	175.43059	42.63245	355.53940	180.60608	41.46204	322.15729	184.80440	34.59549	291.73990	191.50183	24.63890	261.18939	208.10864	11.50851	227.87381	231.43712	6.38736	191.73312	253.32985	5.07617	382.73215	162.16127	24.87448	370.84369	152.43314	18.43867	373.73248	157.54462	2.34723	389.60684	185.02785	29.36965	390.71808	197.33403	28.02049	406.38934	199.84491	18.34760	319.26001	175.37578	28.73871	314.73862	156.61995	28.45153	295.28046	163.45561	16.30209	293.49863	154.30362	11.95916	321.20361	194.54686	26.14506	321.74496	209.27165	14.84648	307.29437	204.95216	3.00006	318.81506	207.36464	2.87473	
2833	23.600	418.11993	176.01579	46.13299	407.49741	175.98903	47.69392	385.19489	175.15866	42.61820	356.73837	180.34962	41.35280	323.56552	184.43120	34.41058	292.80295	190.37254	24.44138	262.23038	206.78236	11.36784	229.05573	230.34373	6.37975	193.06732	252.52344	5.08318	383.63965	161.86453	24.85297	371.48297	152.38469	18.64256	373.84042	157.54240	2.44162	391.23334	184.78200	29.10058	393.40540	197.00015	27.30674	409.30307	198.66795	18.10784	320.90549	175.00171	28.59227	319.12564	155.72536	28.77281	300.35947	161.43365	15.95805	300.13242	152.19077	12.43139	322.11240	194.15575	26.07075	321.78027	208.96312	14.83044	307.18317	205.11864	3.30862	318.85568	207.20885	2.86328	
2834	23.608	419.36221	175.68138	46.16119	408.72989	175.59996	47.76320	386.49170	174.86856	42.60551	357.95197	180.06412	41.23318	324.94012	184.01117	34.22853	293.89340	189.26163	24.23817	263.29550	205.42754	11.20755	230.25134	229.25508	6.40289	194.44675	251.70987	5.06238	384.56070	161.56215	24.82212	372.13763	152.36987	18.81660	373.98709	157.52602	2.57029	392.92386	184.48212	28.85264	396.07959	196.46767	26.50954	411.98196	197.50980	17.48802	322.53513	174.62032	28.46384	323.61826	155.11983	28.98835	305.59137	158.98024	15.52180	307.22601	150.10442	12.81367	323.06854	193.72389	25.99329	321.84286	208.63300	14.85873	307.07611	205.27689	3.60667	318.87045	207.02353	2.80954	
2835	23.617	420.63828	175.30998	46.19973	409.98547	175.19223	47.80973	387.82632	174.55002	42.59338	359.16907	179.72289	41.10654	326.29379	183.55553	34.02856	295.00308	188.13815	24.05178	264.37094	204.03178	11.07592	231.44780	228.12386	6.41993	195.87378	250.89671	5.04881	385.50040	161.28484	24.77807	372.80695	152.42584	18.94732	374.13861	157.52715	2.69203	394.64249	184.12582	28.59428	398.74478	195.83260	25.63302	414.50879	196.35086	16.44842	324.25540	174.19884	28.34402	328.08600	154.83504	29.14055	311.01035	156.21599	15.01901	314.66104	148.04407	13.18108	324.06732	193.24498	25.90993	321.97104	208.29189	14.93456	306.93973	205.42786	3.91086	318.85342	206.84792	2.74114	
2836	23.625	421.92276	174.87453	46.22757	411.28284	174.78476	47.81296	389.17789	174.22235	42.55456	360.46109	179.50453	40.98195	327.61163	183.07214	33.85923	296.13245	186.98349	23.86362	265.48367	202.64218	10.96688	232.66956	226.92957	6.42860	197.34877	250.07574	5.03185	386.47150	161.00768	24.74683	373.56320	152.47404	19.08952	374.41376	157.38499	2.90109	396.35565	183.77316	28.28087	401.30545	195.12115	24.63730	416.93356	195.17822	15.08187	326.01923	173.79816	28.20407	332.40051	154.82208	29.21022	316.54810	153.39081	14.48275	322.19983	146.18124	13.50851	325.10760	192.73213	25.81544	322.19589	207.88196	15.05167	306.92670	205.35869	4.11133	318.80957	206.76648	2.71328	
